<?xml version="1.0" standalone="no"?>
<!DOCTYPE svg PUBLIC "-//W3C//DTD SVG 20010904//EN"
 "http://www.w3.org/TR/2001/REC-SVG-20010904/DTD/svg10.dtd">
<svg version="1.0" xmlns="http://www.w3.org/2000/svg"
 width="300.000000pt" height="300.000000pt" viewBox="0 0 300.000000 300.000000"
 preserveAspectRatio="xMidYMid meet">
<metadata>
Created by potrace 1.10, written by Peter Selinger 2001-2011
</metadata>
<g transform="translate(0.000000,300.000000) scale(0.100000,-0.100000)"
fill="#000000" stroke="none">
<path d="M2890 2630 c0 -5 7 -10 15 -10 8 0 15 5 15 10 0 6 -7 10 -15 10 -8 0
-15 -4 -15 -10z"/>
<path d="M2710 2364 c0 -8 5 -12 10 -9 6 3 10 10 10 16 0 5 -4 9 -10 9 -5 0
-10 -7 -10 -16z"/>
<path d="M1556 2222 c-3 -5 8 -9 25 -10 16 0 27 4 24 9 -8 11 -42 12 -49 1z"/>
<path d="M1458 2205 c-2 -3 -29 -7 -59 -9 -63 -5 -113 -22 -104 -36 3 -5 12
-10 18 -10 7 0 6 4 -3 10 -11 7 -8 9 15 9 41 0 145 24 145 33 0 9 -4 10 -12 3z"/>
<path d="M1500 2201 c0 -6 15 -11 33 -11 17 0 43 -3 57 -6 18 -4 21 -3 10 4
-24 16 -100 25 -100 13z"/>
<path d="M1630 2194 c17 -21 41 -41 53 -43 21 -2 68 -34 106 -72 82 -82 117
-181 131 -371 9 -116 16 -149 40 -207 41 -97 38 -117 -6 -34 -20 37 -39 71
-42 75 -9 9 -6 -177 2 -191 4 -6 2 -21 -5 -33 -11 -22 -10 -22 6 -6 13 12 20
39 24 85 l6 68 19 -43 c11 -23 19 -56 19 -72 0 -16 5 -26 10 -23 15 9 1 134
-22 184 -21 47 -37 135 -44 254 l-5 70 48 -95 c26 -52 53 -114 60 -138 7 -23
17 -42 22 -42 13 0 11 6 -58 164 -133 303 -179 373 -283 427 -23 11 -44 25
-47 30 -3 5 -15 14 -27 21 -21 11 -21 10 -7 -8z m300 -349 c0 -5 -5 -3 -10 5
-5 8 -10 20 -10 25 0 6 5 3 10 -5 5 -8 10 -19 10 -25z m-3 -452 c-2 -21 -4 -6
-4 32 0 39 2 55 4 38 2 -18 2 -50 0 -70z"/>
<path d="M1188 2111 c-105 -76 -174 -206 -138 -261 7 -11 8 -6 4 17 -4 22 1
47 19 85 25 55 100 148 119 148 6 0 4 -8 -5 -18 -10 -10 -17 -24 -17 -30 0 -7
-11 -22 -24 -33 -31 -27 -65 -106 -70 -161 -2 -24 -1 -32 1 -19 4 20 7 22 15
10 7 -10 8 -4 4 21 -4 25 -3 31 4 20 8 -12 10 -11 10 6 0 38 27 99 59 135 17
19 41 45 53 59 13 14 34 33 48 43 20 14 20 15 3 7 -27 -13 -36 -13 -28 0 10
17 1 12 -57 -29z m42 4 c-7 -8 -17 -15 -22 -15 -6 0 -5 7 2 15 7 8 17 15 22
15 6 0 5 -7 -2 -15z"/>
<path d="M1356 2123 c-4 -10 -10 -93 -13 -185 -3 -92 -10 -165 -14 -162 -4 2
-13 30 -20 62 -9 44 -9 70 0 116 14 66 8 87 -8 29 -14 -49 -24 -178 -12 -143
l9 25 1 -28 c1 -16 8 -44 17 -63 15 -32 15 -47 0 -85 -6 -13 -2 -16 19 -11 25
4 26 4 20 -39 -4 -24 -11 -68 -17 -97 -5 -30 -8 -56 -5 -58 5 -6 37 140 37
172 0 14 4 33 9 42 13 26 24 110 11 92 -5 -8 -10 -29 -10 -47 0 -22 -6 -36
-21 -43 -27 -15 -32 -9 -19 26 6 15 13 94 15 175 2 81 7 168 10 193 7 47 3 60
-9 29z"/>
<path d="M1692 2133 c2 -5 13 -27 24 -50 10 -24 22 -43 27 -43 4 0 -4 23 -18
50 -14 28 -28 50 -31 50 -3 0 -4 -3 -2 -7z"/>
<path d="M1500 2048 c0 -56 4 -88 11 -88 7 0 9 27 8 75 -4 108 -19 117 -19 13z"/>
<path d="M1265 2080 c-14 -23 -57 -159 -64 -205 -10 -59 -6 -74 18 -68 11 3
18 -1 18 -11 0 -9 -4 -16 -8 -16 -9 0 -23 -59 -15 -67 3 -3 13 13 22 36 12 31
20 39 28 31 7 -7 7 -16 -2 -30 -11 -18 -10 -19 12 -9 26 12 25 30 -3 63 -9 10
-15 20 -13 22 1 2 1 28 1 57 -1 43 -3 47 -9 22 l-7 -30 -4 35 c-2 19 6 68 17
108 21 68 23 85 9 62z m-26 -215 c20 -26 18 -40 -5 -40 -20 0 -24 5 -24 32 0
17 3 40 7 50 7 15 8 15 11 -7 2 -14 7 -29 11 -35z"/>
<path d="M1184 2015 c-21 -32 -44 -110 -44 -149 0 -45 11 -80 20 -66 5 8 10 8
14 2 3 -5 -1 -13 -9 -16 -19 -7 -35 29 -36 82 l-1 37 -9 -30 c-11 -36 15 -112
40 -118 10 -2 -2 -13 -34 -28 -41 -20 -50 -29 -48 -49 8 -105 13 -142 22 -159
6 -11 11 -40 11 -65 0 -57 15 -66 104 -66 40 0 66 -4 66 -11 0 -21 -21 -49
-48 -63 -20 -11 -22 -15 -9 -16 10 0 29 11 41 25 l24 26 4 -51 c3 -45 -1 -56
-25 -86 -16 -19 -25 -39 -21 -46 5 -7 2 -9 -9 -5 -8 3 -18 0 -20 -8 -6 -15 15
-14 34 2 8 6 38 24 67 39 30 16 68 37 85 46 16 9 61 20 99 24 38 4 71 10 74
15 12 21 -204 -23 -221 -45 -14 -17 -105 -66 -105 -57 0 5 26 32 58 62 69 65
99 109 73 109 -5 0 -12 -11 -15 -24 -3 -14 -18 -33 -34 -44 l-27 -20 -3 42
c-6 99 1 90 -82 96 -41 3 -81 9 -87 13 -8 5 -13 29 -13 57 0 27 -4 52 -10 55
-16 10 -11 35 7 35 9 0 13 3 9 8 -4 4 -13 7 -19 7 -7 0 -12 26 -14 66 -2 65
-2 65 29 75 17 5 40 21 51 36 18 24 19 31 7 52 -7 14 -18 23 -23 19 -18 -11 2
109 28 164 26 57 25 68 -1 28z"/>
<path d="M1472 1882 l-2 -102 32 -29 c31 -27 31 -29 11 -39 -18 -10 -20 -8
-19 15 1 14 -5 28 -13 31 -11 4 -13 -6 -8 -54 4 -33 10 -99 13 -149 3 -49 6
-92 7 -95 0 -3 -2 -12 -6 -20 -3 -8 -8 -33 -11 -55 -7 -50 9 -25 19 30 7 40 7
40 20 15 6 -14 15 -40 18 -57 l7 -33 -45 0 c-42 0 -58 11 -35 25 12 7 12 82 1
140 l-7 40 -5 -38 c-3 -21 -1 -41 4 -44 13 -8 0 -90 -20 -124 -10 -16 -25 -29
-35 -29 -10 0 -18 -4 -18 -10 0 -15 26 -12 40 5 7 9 19 14 27 11 7 -3 13 -1
13 4 0 6 18 10 41 10 22 0 38 -4 35 -9 -4 -5 5 -4 19 2 26 13 50 65 42 94 -3
13 -5 11 -8 -7 -1 -14 -5 13 -9 60 -4 57 -2 90 6 100 6 8 18 30 27 48 15 30
15 38 2 68 -8 19 -25 39 -39 45 -13 6 -27 19 -30 28 -3 9 -12 32 -20 51 -12
29 -15 31 -15 12 -1 -13 6 -37 15 -53 21 -41 13 -46 -14 -9 -20 27 -21 34 -11
74 6 24 9 54 7 67 -3 16 -8 6 -14 -31 l-9 -55 -6 85 -5 85 -2 -103z m98 -171
c-8 -6 -17 -8 -22 -5 -10 6 -41 -42 -36 -57 2 -7 10 2 17 19 13 31 13 31 40
14 25 -16 25 -16 12 1 -12 16 -12 18 0 15 16 -3 27 -24 28 -53 1 -15 -2 -16
-8 -7 -6 10 -10 9 -14 -7 -3 -13 -1 -19 5 -15 14 9 -7 -30 -24 -44 -25 -20
-65 -25 -71 -8 -5 12 0 15 21 12 15 -2 21 -1 14 1 -7 3 -12 10 -11 16 4 32 -1
40 -16 27 -13 -11 -15 -8 -15 17 0 41 34 83 68 83 20 0 23 -3 12 -9z m-14
-169 c6 -4 11 -27 12 -52 l1 -45 -23 29 c-14 17 -29 26 -36 21 -7 -4 -5 5 4
24 17 32 23 36 42 23z m-12 -117 l7 -30 -21 32 c-12 18 -18 38 -14 44 8 14 18
-2 28 -46z m30 -35 c3 -19 3 -29 0 -21 -5 11 -8 11 -14 0 -5 -7 -8 5 -7 29 2
47 12 43 21 -8z"/>
<path d="M1548 1648 c5 -5 16 -8 23 -6 8 3 3 7 -10 11 -17 4 -21 3 -13 -5z"/>
<path d="M1531 1526 c-7 -8 -8 -17 -3 -20 6 -3 13 1 16 10 9 23 2 28 -13 10z"/>
<path d="M1361 1940 c0 -8 4 -24 9 -35 5 -13 9 -14 9 -5 0 8 -4 24 -9 35 -5
13 -9 14 -9 5z"/>
<path d="M1642 1873 c11 -42 26 -89 34 -103 17 -28 17 -28 -18 98 -29 104 -43
108 -16 5z"/>
<path d="M1547 1890 c3 -25 10 -56 16 -70 13 -31 14 -36 16 -55 1 -13 4 -13
14 -3 10 9 11 17 3 34 -6 12 -13 20 -16 18 -3 -3 -13 23 -22 58 -15 53 -16 56
-11 18z"/>
<path d="M1594 1910 c17 -77 44 -263 40 -274 -3 -8 2 -38 10 -67 17 -57 22
-204 7 -194 -5 3 -12 -3 -16 -14 -3 -11 -11 -22 -18 -24 -7 -2 -4 -3 5 -2 9 2
19 -3 21 -9 3 -7 -6 -13 -21 -14 -35 -3 -41 -12 -9 -13 29 -2 33 -2 57 -11 49
-18 138 -43 135 -38 -5 8 -78 35 -118 44 -26 6 -28 10 -21 34 11 34 6 224 -7
294 -5 29 -19 107 -30 173 -11 66 -25 124 -30 130 -7 7 -9 2 -5 -15z m53 -302
c-3 -7 -5 -2 -5 12 0 14 2 19 5 13 2 -7 2 -19 0 -25z"/>
<path d="M2210 1915 c0 -8 5 -15 10 -15 6 0 10 7 10 15 0 8 -4 15 -10 15 -5 0
-10 -7 -10 -15z"/>
<path d="M1390 1915 c0 -5 5 -17 10 -25 5 -8 10 -10 10 -5 0 6 -5 17 -10 25
-5 8 -10 11 -10 5z"/>
<path d="M1452 1890 c0 -19 2 -27 5 -17 2 9 2 25 0 35 -3 9 -5 1 -5 -18z"/>
<path d="M2290 1890 c0 -5 5 -10 11 -10 5 0 7 5 4 10 -3 6 -8 10 -11 10 -2 0
-4 -4 -4 -10z"/>
<path d="M1426 1870 c7 -28 12 -35 18 -29 2 2 -2 15 -10 29 l-15 25 7 -25z"/>
<path d="M1770 1882 c0 -17 110 -235 116 -229 3 2 -22 58 -56 123 -33 65 -60
113 -60 106z"/>
<path d="M1864 1799 c0 -26 4 -45 9 -42 4 2 7 -8 7 -23 0 -33 12 -24 16 11 1
14 -2 23 -7 20 -5 -4 -9 4 -10 17 0 13 -4 32 -8 43 -6 14 -8 6 -7 -26z"/>
<path d="M1101 1803 c-1 -12 4 -25 9 -28 12 -7 12 2 0 30 -8 19 -9 19 -9 -2z"/>
<path d="M1780 1771 c0 -6 4 -13 10 -16 6 -3 7 1 4 9 -7 18 -14 21 -14 7z"/>
<path d="M1696 1743 c-4 -9 -4 -18 -1 -21 3 -3 5 1 5 9 1 8 7 3 15 -11 11 -20
14 -21 15 -7 0 10 -6 25 -14 32 -12 12 -15 12 -20 -2z"/>
<path d="M1780 1727 c18 -20 36 -34 39 -32 2 3 10 0 18 -6 7 -6 13 -9 13 -7 0
8 -41 53 -48 53 -4 1 -18 7 -32 14 -21 12 -19 8 10 -22z m34 -13 c3 -8 2 -12
-4 -9 -6 3 -10 10 -10 16 0 14 7 11 14 -7z"/>
<path d="M1660 1717 c0 -19 16 -31 24 -18 3 5 -1 14 -9 21 -12 10 -15 10 -15
-3z"/>
<path d="M1249 1693 c-13 -16 -12 -17 4 -4 9 7 17 15 17 17 0 8 -8 3 -21 -13z"/>
<path d="M1168 1684 c-16 -8 -28 -17 -28 -19 0 -11 19 -4 41 15 29 23 24 25
-13 4z"/>
<path d="M1896 1659 c0 -22 6 -45 13 -52 9 -9 11 -2 5 33 -9 59 -19 70 -18 19z"/>
<path d="M1725 1673 c2 -10 15 -47 30 -82 29 -71 39 -209 17 -246 -8 -15 -12
-16 -12 -5 -1 9 -5 6 -10 -7 -5 -13 -15 -23 -22 -23 -9 0 -9 3 2 10 8 5 11 10
6 10 -4 0 -1 11 8 25 14 21 15 33 7 62 -6 20 -8 40 -5 44 9 15 -19 90 -29 80
-7 -7 -7 -15 0 -23 14 -18 17 -137 4 -171 -7 -18 -18 -27 -32 -27 -30 0 -20
-8 18 -14 17 -3 55 -17 84 -31 30 -14 62 -25 72 -25 26 0 30 -23 12 -75 -8
-26 -13 -50 -11 -53 3 -3 8 4 12 14 3 10 10 29 15 42 17 42 10 66 -22 85 -17
9 -36 14 -41 10 -6 -3 -8 -1 -5 4 8 13 -14 23 -51 23 -25 1 -26 2 -9 14 10 8
21 31 24 52 l7 39 12 -50 11 -50 -3 70 c-3 69 1 61 12 -23 5 -41 7 -43 23 -28
10 9 20 14 23 11 3 -3 11 1 18 10 22 26 2 30 -25 5 l-25 -23 0 36 c0 20 -9 61
-21 91 -11 31 -17 61 -13 67 5 8 3 9 -6 4 -10 -6 -12 -3 -7 14 6 26 -23 107
-34 90 -4 -7 -10 1 -14 20 -3 17 -10 33 -15 36 -5 3 -7 -2 -5 -12z"/>
<path d="M1186 1662 c-3 -4 4 -9 15 -9 23 -2 25 3 4 10 -8 4 -16 3 -19 -1z"/>
<path d="M1245 1650 c-3 -5 -2 -10 4 -10 5 0 13 5 16 10 3 6 2 10 -4 10 -5 0
-13 -4 -16 -10z"/>
<path d="M1421 1633 c-1 -6 -4 -20 -7 -30 -5 -17 -5 -17 6 0 6 10 9 23 6 30
-3 9 -5 9 -5 0z"/>
<path d="M1366 1555 c-14 -72 -28 -108 -36 -95 -5 8 -11 1 -19 -21 -14 -39
-14 -49 -1 -49 10 0 39 51 50 90 6 19 9 6 15 -50 10 -91 23 -64 22 45 0 58 -1
62 -6 25 -5 -43 -6 -42 -11 25 -5 68 -6 69 -14 30z"/>
<path d="M1401 1564 c0 -11 3 -14 6 -6 3 7 2 16 -1 19 -3 4 -6 -2 -5 -13z"/>
<path d="M1150 1560 c0 -5 7 -10 16 -10 8 0 12 5 9 10 -3 6 -10 10 -16 10 -5
0 -9 -4 -9 -10z"/>
<path d="M2055 1510 c5 -41 -4 -114 -20 -165 -3 -11 1 -7 11 10 21 37 31 155
15 181 -10 16 -11 11 -6 -26z"/>
<path d="M1871 1518 c0 -9 -4 -25 -7 -35 -5 -17 -5 -17 6 0 6 10 9 25 7 35 -4
15 -5 15 -6 0z"/>
<path d="M1442 1435 c0 -16 2 -22 5 -12 2 9 2 23 0 30 -3 6 -5 -1 -5 -18z"/>
<path d="M2680 1440 c0 -5 5 -10 10 -10 6 0 10 5 10 10 0 6 -4 10 -10 10 -5 0
-10 -4 -10 -10z"/>
<path d="M2320 1389 c0 -5 5 -7 10 -4 6 3 10 8 10 11 0 2 -4 4 -10 4 -5 0 -10
-5 -10 -11z"/>
<path d="M2530 1339 c0 -5 5 -7 10 -4 6 3 10 8 10 11 0 2 -4 4 -10 4 -5 0 -10
-5 -10 -11z"/>
<path d="M850 1250 c0 -5 7 -10 15 -10 8 0 15 5 15 10 0 6 -7 10 -15 10 -8 0
-15 -4 -15 -10z"/>
<path d="M1830 1230 c8 -5 24 -10 34 -10 26 0 18 6 -19 14 -22 5 -26 4 -15 -4z"/>
<path d="M1461 1220 c36 -5 83 -13 105 -19 49 -14 61 -14 49 -2 -14 13 -120
31 -174 30 -41 -1 -39 -2 20 -9z"/>
<path d="M1329 1182 c-96 -56 -192 -163 -173 -193 4 -7 3 -9 -3 -6 -6 4 -10
-6 -9 -23 2 -44 11 -37 25 21 22 83 141 199 206 199 110 0 166 -74 253 -335
47 -140 57 -179 43 -171 -5 4 -21 -8 -36 -26 l-26 -33 7 30 c3 17 10 47 16 69
15 60 2 54 -17 -9 -10 -30 -19 -54 -21 -52 -2 2 -5 57 -6 121 -1 65 -5 110 -9
99 -6 -14 -8 -12 -8 10 -1 15 -5 27 -11 27 -5 0 -10 16 -10 35 0 19 -4 35 -10
35 -5 0 -11 17 -11 38 -2 34 -2 34 -6 7 -5 -32 16 -137 26 -131 3 2 7 -10 8
-27 1 -18 6 -66 12 -107 22 -160 31 -219 47 -340 9 -69 27 -153 40 -187 26
-66 30 -88 14 -78 -5 3 -10 15 -10 26 0 11 -4 17 -10 14 -6 -3 -10 4 -10 17 0
13 -5 30 -10 38 -7 11 -10 5 -10 -25 0 -27 -3 -36 -9 -26 -5 8 -8 19 -6 25 2
6 6 25 10 41 6 28 5 29 -8 11 -8 -11 -12 -28 -9 -38 8 -33 -8 -18 -69 65 -63
84 -124 200 -136 257 -4 25 -8 29 -15 17 -21 -39 115 -269 229 -385 70 -71 89
-72 77 -2 -5 29 -4 33 7 22 15 -14 21 -62 9 -77 -9 -12 11 -135 22 -135 4 0 8
4 8 9 0 6 9 8 19 6 13 -2 26 6 37 22 16 25 16 27 -2 40 -10 7 -22 13 -27 13
-5 0 3 14 17 31 24 28 27 57 5 43 -5 -3 -7 -9 -5 -12 2 -4 -4 -19 -14 -32 -16
-21 -22 -23 -37 -14 -19 12 -17 31 4 26 6 -1 17 8 24 20 7 13 17 27 23 31 7 6
4 7 -7 3 -12 -4 -17 -2 -14 6 2 7 11 12 20 10 8 -1 18 2 22 8 4 6 -1 7 -11 3
-13 -5 -15 -3 -9 8 8 12 6 12 -8 0 -13 -10 -17 -10 -17 -1 0 10 -3 10 -14 1
-10 -8 -16 -9 -21 -1 -3 6 -11 8 -16 5 -14 -9 -11 11 4 24 10 8 17 7 27 -2 9
-8 11 -9 6 0 -3 6 -2 14 4 18 5 3 10 3 10 -2 0 -4 20 -16 45 -26 33 -14 45
-25 46 -40 1 -14 6 -7 14 18 17 55 29 135 17 115 -6 -8 -13 -34 -17 -58 -6
-38 -9 -42 -28 -36 -31 9 -31 10 -10 41 32 45 37 57 25 49 -17 -10 -15 4 5 28
9 12 -3 1 -28 -24 -24 -25 -43 -49 -41 -53 2 -4 13 4 24 18 28 36 35 24 7 -14
-19 -26 -25 -29 -43 -18 -12 6 -25 11 -30 12 -5 0 -11 7 -14 15 -3 8 -1 12 3
8 5 -4 14 -3 22 3 7 6 13 8 13 3 0 -11 48 36 73 71 20 29 20 29 1 12 -12 -9
-23 -15 -26 -12 -3 3 -19 -10 -37 -30 -25 -28 -33 -33 -37 -20 -4 8 0 23 7 32
12 14 12 16 -1 9 -8 -5 2 6 23 24 20 17 35 35 32 40 -3 4 2 13 11 20 8 7 12
20 9 29 -3 9 5 3 18 -12 13 -15 31 -49 41 -76 28 -78 41 -91 91 -91 58 0 78
19 63 63 -6 17 -15 36 -19 42 -16 17 -9 35 18 46 37 14 53 -9 53 -77 0 -40 -4
-56 -17 -63 -10 -6 -14 -11 -9 -11 5 0 2 -8 -6 -17 -9 -10 -18 -27 -21 -38 -4
-16 -5 -15 -6 5 0 15 4 31 11 38 8 8 9 12 1 12 -6 0 -16 -15 -21 -32 -9 -28
-9 -54 -3 -155 1 -7 6 -13 12 -13 7 0 18 -8 25 -17 7 -10 14 -13 14 -6 0 6 -4
15 -10 18 -16 10 -12 62 5 69 12 4 15 -4 17 -37 l1 -42 4 40 c3 22 8 44 13 49
5 5 5 19 0 32 -6 15 -6 34 0 50 14 35 12 44 -5 38 -8 -4 -15 -1 -15 5 0 6 6
11 13 11 16 0 8 133 -10 151 -7 7 -23 8 -42 4 -39 -8 -51 -45 -27 -85 9 -16
16 -35 16 -43 0 -20 -33 -30 -71 -22 -26 6 -35 18 -68 88 -25 55 -52 95 -79
119 -27 24 -39 43 -36 53 4 8 10 15 16 15 5 0 6 -6 2 -12 -5 -9 -3 -9 9 1 9 7
14 17 11 22 -7 11 -44 -8 -44 -22 0 -6 -16 -9 -36 -7 -32 2 -37 -1 -49 -28
-22 -52 -29 -98 -15 -89 9 5 11 4 6 -4 -4 -6 -12 -9 -17 -6 -5 4 -9 -4 -10
-17 0 -22 -1 -22 -8 -3 -5 11 -5 28 0 37 12 23 11 37 -1 18 -9 -13 -10 -13
-10 0 0 8 -3 38 -6 67 -5 43 -3 57 14 78 l21 26 11 -22 c7 -12 8 -19 2 -15 -5
3 -16 -1 -23 -10 -14 -17 -20 -56 -7 -48 4 3 8 11 8 18 0 8 9 16 21 19 23 6
23 35 -1 54 -8 7 -13 13 -10 13 36 8 38 7 45 -36 6 -45 13 -52 31 -34 15 15
154 60 187 60 42 0 92 -27 133 -72 19 -22 38 -37 42 -34 7 8 -42 59 -89 91
-24 18 -51 26 -78 27 -23 0 -44 5 -48 11 -3 5 -2 7 4 4 9 -6 33 54 33 83 0 22
-12 3 -20 -32 l-8 -33 -1 30 c-1 17 6 40 14 52 12 16 12 27 4 52 -6 17 -18 31
-27 31 -8 0 -12 -3 -9 -7 11 -10 -13 -32 -28 -27 -8 3 -20 -6 -30 -23 -15 -26
-16 -27 -10 -3 4 14 10 43 15 65 7 39 8 39 9 8 0 -20 6 -33 14 -33 10 0 11 15
6 66 -4 36 -4 76 -1 87 5 20 4 20 -11 8 -9 -7 -26 -29 -38 -47 l-21 -34 -26
35 c-89 117 -110 153 -74 124 10 -8 2 1 -17 18 -20 18 -70 51 -113 73 -94 49
-142 52 -209 12z m160 -2 c55 -27 84 -67 121 -162 48 -126 109 -338 96 -338
-6 0 -4 -4 4 -10 8 -5 16 -7 18 -5 11 10 -105 372 -143 445 -16 30 -16 31 3
21 11 -6 40 -39 64 -73 40 -57 46 -74 62 -168 18 -105 34 -162 35 -128 1 15
-18 116 -34 187 -5 20 -1 18 30 -15 l37 -39 -5 -85 c-6 -103 -19 -166 -32
-163 -6 2 -10 -7 -10 -19 0 -12 -5 -23 -11 -25 -6 -2 -23 42 -39 104 -26 102
-98 303 -129 361 -33 60 -91 109 -149 122 l-32 8 38 1 c21 1 55 -8 76 -19z
m329 -245 c0 -14 -6 -25 -14 -25 -11 0 -11 5 -2 25 6 14 12 25 13 25 2 0 3
-11 3 -25z m-21 -87 c-3 -8 -6 -5 -6 6 -1 11 2 17 5 13 3 -3 4 -12 1 -19z m28
-68 c-11 -20 -12 -29 -4 -25 9 6 10 2 6 -16 -4 -13 -7 -40 -7 -59 0 -30 -5
-37 -30 -47 -29 -11 -29 -11 -24 21 9 51 33 120 50 145 23 32 29 19 9 -19z
m44 -22 c-2 -102 -14 -126 -23 -42 -7 70 -2 104 15 104 5 0 9 -28 8 -62z m-32
-105 c-3 -10 -5 -2 -5 17 0 19 2 27 5 18 2 -10 2 -26 0 -35z m-97 -103 c5 0
22 -11 39 -25 30 -26 34 -52 10 -81 -6 -8 -8 -14 -4 -14 4 0 2 -7 -5 -15 -7
-8 -16 -12 -21 -10 -10 7 -55 -53 -51 -67 1 -5 -2 -7 -8 -3 -7 4 -3 18 11 38
l21 32 -22 -25 c-12 -14 -27 -25 -33 -25 -5 0 -11 -8 -13 -18 -2 -15 0 -16 12
-6 10 8 14 9 14 0 0 -6 -7 -14 -15 -17 -18 -7 -20 -24 -2 -24 6 0 18 -4 26 -9
12 -8 10 -14 -7 -35 l-20 -27 -8 23 c-4 13 -8 35 -9 50 -1 15 -4 31 -8 34 -4
4 -2 14 5 21 9 11 9 16 -1 23 -9 5 -10 9 -2 14 6 4 9 11 6 16 -3 5 2 21 11 35
9 14 13 25 9 25 -4 0 -2 7 5 15 10 12 16 13 27 4 12 -10 9 -18 -19 -46 -17
-18 -26 -33 -19 -33 11 0 11 -3 0 -17 -7 -10 4 -2 24 16 30 28 37 31 37 17 0
-16 2 -16 15 -6 9 7 25 27 37 44 l21 31 -27 -27 c-33 -35 -58 -37 -26 -3 13
14 20 28 17 32 -4 3 -1 13 6 22 10 14 10 14 -5 3 -14 -11 -19 -10 -32 10 -9
13 -20 22 -23 20 -4 -2 -9 2 -12 9 -2 8 2 10 13 6 10 -4 21 -7 26 -7z m-46
-41 c-21 -24 -29 -18 -14 10 6 12 16 19 21 15 6 -4 4 -13 -7 -25z m46 -15 c0
-9 5 -12 12 -8 17 11 -26 -47 -53 -71 -25 -22 -17 -2 13 31 17 19 17 22 3 34
-11 10 -13 16 -4 26 13 16 29 9 29 -12z m61 -142 c-5 -10 -18 -25 -27 -33 -16
-12 -17 -12 -9 1 10 18 37 50 42 50 2 0 -1 -8 -6 -18z m-66 -45 c3 -4 2 -5 -2
-2 -3 3 -12 0 -19 -6 -15 -12 -38 -3 -29 12 7 10 41 7 50 -4z m340 -65 c-9
-25 -10 -39 -3 -43 6 -4 -1 -14 -16 -24 -15 -10 -29 -16 -31 -13 -3 3 1 29 9
59 8 30 15 48 15 42 1 -7 5 -13 10 -13 5 0 7 9 4 20 -4 15 -2 19 9 15 13 -5
13 -12 3 -43z m-341 -36 c17 6 14 -42 -3 -58 -11 -11 -11 -9 -1 12 12 22 12
24 -3 12 -13 -11 -15 -10 -12 5 1 10 -2 25 -8 33 -9 12 -8 13 2 3 7 -6 19 -9
25 -7z m296 -76 c0 -11 -2 -20 -4 -20 -2 0 -6 9 -9 20 -3 11 -1 20 4 20 5 0 9
-9 9 -20z m-285 -61 c-3 -3 7 -5 20 -3 29 3 30 -3 10 -30 -11 -14 -15 -16 -15
-5 0 8 -3 10 -8 4 -16 -22 -35 -16 -30 10 3 14 1 25 -3 25 -5 0 -9 7 -9 15 0
12 3 13 19 3 11 -7 18 -15 16 -19z"/>
<path d="M1740 706 c0 -20 2 -36 4 -36 8 0 12 61 4 66 -4 3 -8 -11 -8 -30z"/>
<path d="M1790 695 c-17 -62 -8 -66 11 -5 9 28 12 50 9 50 -4 0 -13 -20 -20
-45z"/>
<path d="M1679 253 c-13 -16 -12 -17 4 -4 16 13 21 21 13 21 -2 0 -10 -8 -17
-17z"/>
<path d="M1630 1189 c0 -5 8 -9 18 -9 35 0 192 -122 192 -149 0 -6 5 -11 10
-11 7 0 7 6 0 20 -8 14 -8 26 0 41 7 11 9 23 7 26 -3 2 -11 -5 -17 -17 -11
-21 -12 -20 -59 23 -26 24 -58 50 -71 57 -36 19 -80 30 -80 19z"/>
<path d="M1332 1148 c-13 -17 -32 -87 -31 -118 0 -14 6 0 13 32 7 31 18 63 25
72 8 9 12 19 9 21 -3 3 -10 0 -16 -7z"/>
<path d="M1794 1125 c11 -8 25 -15 30 -15 6 0 2 7 -8 15 -11 8 -25 15 -30 15
-6 0 -2 -7 8 -15z"/>
<path d="M1160 1066 c-17 -35 -52 -85 -77 -110 -25 -25 -39 -46 -32 -46 7 0 9
-3 5 -7 -4 -5 -12 -8 -18 -8 -6 0 -16 -9 -22 -20 -6 -11 -14 -22 -18 -25 -14
-11 -48 -103 -48 -130 0 -16 5 -42 12 -57 16 -37 15 -36 28 -28 7 4 4 16 -10
35 -17 23 -18 35 -11 74 9 52 26 80 85 144 22 25 35 42 27 37 -10 -5 -12 -4
-7 4 4 6 12 8 18 5 7 -5 9 -2 6 8 -4 9 0 15 8 15 10 0 13 -6 8 -16 -12 -32
-15 -100 -5 -138 11 -40 100 -188 108 -179 3 2 -8 24 -25 48 -60 88 -90 173
-72 208 12 25 20 91 9 85 -14 -9 -12 -4 35 83 24 45 41 82 36 82 -4 0 -22 -29
-40 -64z"/>
<path d="M1502 1050 c0 -19 2 -27 5 -17 2 9 2 25 0 35 -3 9 -5 1 -5 -18z"/>
<path d="M2870 1070 c0 -5 4 -10 9 -10 6 0 13 5 16 10 3 6 -1 10 -9 10 -9 0
-16 -4 -16 -10z"/>
<path d="M1282 984 c-12 -8 -22 -21 -22 -27 0 -8 2 -9 8 -1 4 6 17 16 29 23
19 9 29 8 55 -5 60 -31 90 -58 149 -137 32 -43 59 -74 59 -69 0 17 -85 125
-128 164 -43 39 -92 68 -114 68 -8 0 -24 -7 -36 -16z"/>
<path d="M1194 965 c-3 -14 -4 -37 -2 -50 3 -14 1 -25 -3 -25 -5 0 -13 -15
-18 -32 l-10 -33 3 40 c2 22 1 32 -1 23 -2 -10 -8 -18 -13 -18 -11 0 14 -86
51 -173 16 -38 26 -73 23 -78 -3 -5 7 -26 22 -46 14 -21 24 -31 21 -22 -51
153 -74 215 -81 220 -5 4 -6 11 -2 17 3 6 1 12 -5 14 -9 3 -8 14 2 43 l14 40
3 -30 c4 -37 32 -138 37 -133 2 2 -3 30 -11 63 -19 83 -18 115 8 142 12 13 16
23 10 23 -6 0 -18 -10 -28 -22 -16 -22 -16 -22 -10 20 7 46 0 57 -10 17z"/>
<path d="M1072 876 c-34 -58 -52 -123 -51 -184 2 -56 2 -56 14 29 9 59 21 101
40 133 15 26 25 49 22 52 -2 3 -14 -11 -25 -30z"/>
<path d="M1472 800 c0 -19 2 -27 5 -17 2 9 2 25 0 35 -3 9 -5 1 -5 -18z"/>
<path d="M1483 775 c-9 -20 -8 -25 3 -25 8 0 14 10 14 25 0 31 -2 31 -17 0z"/>
<path d="M1305 765 c2 -16 7 -97 10 -180 6 -152 4 -155 -26 -76 -6 13 -12 21
-15 19 -3 -3 7 -36 21 -74 14 -38 29 -96 32 -129 6 -56 5 -59 -11 -46 -10 8
-15 23 -13 33 3 10 2 18 -3 18 -4 0 -10 -9 -13 -20 -3 -11 -2 -20 2 -20 3 0
12 -9 18 -19 10 -16 9 -20 -9 -24 -16 -5 -19 -2 -15 14 6 23 -8 26 -17 2 -7
-18 35 -69 65 -78 9 -3 20 -18 24 -33 12 -48 67 -152 81 -152 8 0 14 5 14 10
0 6 -7 10 -15 10 -8 0 -15 7 -15 15 0 9 -12 34 -27 57 -32 52 -48 166 -57 408
-7 172 -11 220 -27 267 l-9 28 5 -30z m32 -542 c-3 -10 -5 -4 -5 12 0 17 2 24
5 18 2 -7 2 -21 0 -30z"/>
<path d="M1520 728 c0 -16 5 -28 10 -28 6 0 10 -10 10 -23 0 -13 6 -32 14 -42
11 -16 12 -12 2 28 -6 26 -14 47 -19 47 -4 0 -6 4 -3 8 2 4 1 14 -5 22 -6 11
-9 8 -9 -12z"/>
<path d="M1363 615 c0 -22 2 -30 4 -17 2 12 2 30 0 40 -3 9 -5 -1 -4 -23z"/>
<path d="M1026 533 c4 -54 11 -102 17 -108 6 -7 8 3 3 30 -3 22 -6 70 -6 108
0 39 -4 67 -10 67 -7 0 -8 -34 -4 -97z"/>
<path d="M1964 568 l-19 -23 23 19 c21 18 27 26 19 26 -2 0 -12 -10 -23 -22z"/>
<path d="M1070 537 c0 -13 58 -126 82 -160 38 -54 92 -117 101 -117 4 0 6 4 2
9 -3 6 4 33 14 62 12 31 17 58 12 67 -7 12 -9 12 -15 -3 -3 -9 -3 -22 1 -28 4
-7 -2 -5 -12 3 -17 14 -18 14 -7 -7 14 -26 15 -36 3 -29 -5 4 -7 -2 -4 -13 3
-10 -1 -22 -8 -27 -9 -5 -11 -2 -6 9 3 10 2 17 -3 17 -5 0 -7 8 -4 18 5 13 4
14 -4 3 -9 -12 -12 -12 -24 0 -8 8 -13 20 -10 27 2 7 -2 11 -8 10 -7 -2 -34
35 -61 82 -27 46 -49 81 -49 77z"/>
<path d="M2100 510 c6 -11 9 -69 8 -140 -2 -66 0 -120 3 -120 3 0 9 46 12 103
6 99 -5 177 -25 177 -5 0 -4 -9 2 -20z"/>
<path d="M1930 495 c-7 -9 -10 -18 -6 -22 3 -3 6 -1 6 5 0 7 6 12 14 12 8 0
18 5 21 10 10 16 -21 11 -35 -5z"/>
<path d="M1047 278 c6 -151 20 -235 23 -133 1 33 3 56 5 50 2 -5 16 -52 31
-102 15 -51 30 -93 34 -93 4 0 -8 50 -27 111 -18 62 -41 153 -49 203 -9 50
-17 92 -19 94 -1 2 -1 -57 2 -130z"/>
<path d="M2104 190 c0 -22 3 -40 8 -40 4 0 8 18 8 40 0 52 -15 52 -16 0z"/>
<path d="M1821 103 c-7 -38 -14 -76 -17 -85 -3 -10 -1 -18 5 -18 5 0 11 12 13
27 3 25 36 45 102 58 23 5 69 35 63 41 -2 2 -36 -9 -75 -26 -39 -16 -74 -30
-78 -30 -6 0 2 58 13 86 3 8 1 14 -5 14 -5 0 -15 -30 -21 -67z"/>
<path d="M1800 120 c-6 -11 -8 -20 -6 -20 3 0 10 9 16 20 6 11 8 20 6 20 -3 0
-10 -9 -16 -20z"/>
<path d="M1200 120 c-8 -5 -12 -11 -9 -14 2 -3 11 -1 19 4 8 5 12 11 9 14 -2
3 -11 1 -19 -4z"/>
<path d="M2100 110 c0 -11 2 -20 4 -20 2 0 6 9 9 20 3 11 1 20 -4 20 -5 0 -9
-9 -9 -20z"/>
<path d="M1301 80 c-32 -27 -33 -29 -10 -25 13 3 25 9 27 15 2 5 8 10 13 10 6
0 6 -8 -1 -19 -16 -32 -12 -36 12 -12 19 21 20 24 4 33 -9 5 -14 13 -11 19 10
15 2 10 -34 -21z"/>
<path d="M1240 90 c0 -5 7 -10 15 -10 8 0 15 5 15 10 0 6 -7 10 -15 10 -8 0
-15 -4 -15 -10z"/>
<path d="M1050 70 c0 -5 5 -10 10 -10 6 0 10 5 10 10 0 6 -4 10 -10 10 -5 0
-10 -4 -10 -10z"/>
<path d="M2078 41 c-16 -25 -20 -37 -12 -34 15 6 49 62 41 69 -2 2 -15 -14
-29 -35z"/>
<path d="M1050 23 c0 -22 2 -25 10 -13 13 20 13 40 0 40 -5 0 -10 -12 -10 -27z"/>
<path d="M1346 35 c-3 -8 -1 -15 4 -15 6 0 10 7 10 15 0 8 -2 15 -4 15 -2 0
-6 -7 -10 -15z"/>
<path d="M1377 43 c-4 -3 -7 -11 -7 -17 0 -6 5 -5 12 2 6 6 9 14 7 17 -3 3 -9
2 -12 -2z"/>
<path d="M1080 26 c0 -3 9 -10 20 -16 11 -6 20 -8 20 -6 0 3 -9 10 -20 16 -11
6 -20 8 -20 6z"/>
</g>
</svg>
